<?xml version="1.0" standalone="no"?>
<!DOCTYPE svg PUBLIC "-//W3C//DTD SVG 20010904//EN"
 "http://www.w3.org/TR/2001/REC-SVG-20010904/DTD/svg10.dtd">
<svg version="1.0" xmlns="http://www.w3.org/2000/svg"
 width="240.000000pt" height="240.000000pt" viewBox="0 0 240.000000 240.000000"
 preserveAspectRatio="xMidYMid meet">
<metadata>
Created by potrace 1.11, written by Peter Selinger 2001-2013
</metadata>
<g transform="translate(0.000000,240.000000) scale(0.100000,-0.100000)"
fill="#000000" stroke="none">
<path d="M1016 2393 c-11 -3 -51 -22 -90 -43 -60 -32 -72 -43 -76 -68 -4 -26
-16 -36 -75 -67 -112 -58 -166 -122 -214 -255 -32 -87 -38 -115 -21 -105 5 3
3 -12 -5 -34 -11 -33 -11 -40 0 -45 8 -3 16 0 19 7 2 7 5 0 5 -15 1 -15 -15
-74 -34 -130 -27 -81 -36 -125 -40 -203 -3 -55 -7 -120 -10 -145 l-4 -45 15
33 c8 18 19 30 24 27 6 -4 4 -18 -6 -37 -33 -64 -65 -175 -71 -244 -7 -83 3
-152 19 -136 7 7 7 30 -1 74 -7 39 -7 74 -2 93 9 28 9 26 11 -20 1 -27 5 -59
9 -70 7 -17 11 -12 24 30 12 36 15 40 10 15 -3 -19 -16 -62 -29 -94 -13 -33
-24 -67 -24 -77 0 -9 -18 -62 -40 -117 -34 -83 -43 -122 -56 -238 -9 -77 -20
-147 -25 -156 -11 -20 -10 -200 1 -278 6 -47 8 -38 11 70 l3 125 3 -100 c2
-55 5 -110 8 -122 l5 -23 276 0 c162 0 273 4 270 9 -3 5 -42 30 -86 56 -44 26
-83 52 -86 57 -9 14 93 3 158 -17 60 -18 71 -4 28 35 l-32 29 34 6 c47 9 131
-17 197 -60 29 -19 55 -35 58 -35 2 0 26 -18 53 -41 27 -22 56 -39 66 -37 17
3 -57 70 -182 164 -62 47 -58 43 -52 50 4 3 21 -2 40 -12 33 -17 33 -17 16 3
-19 21 -24 63 -9 63 5 0 26 16 47 35 20 19 40 35 43 35 18 -1 97 -74 145 -135
56 -71 85 -149 70 -188 -6 -16 14 -17 233 -17 l239 0 17 53 c28 86 31 88 77
40 25 -26 40 -52 40 -68 0 -25 0 -25 90 -25 l90 0 0 295 0 296 -25 23 c-28 26
-31 46 -13 76 7 10 9 22 5 26 -10 10 -41 -20 -63 -61 -10 -19 -25 -35 -34 -35
-36 1 -43 18 -51 122 -11 128 -12 140 -21 154 -4 6 -10 31 -13 55 -4 24 -13
73 -22 108 -8 35 -17 85 -19 110 -15 169 -38 281 -74 360 -17 34 -27 67 -24
72 3 5 -2 12 -10 15 -9 3 -14 10 -11 14 5 8 -93 179 -121 211 -8 8 -14 20 -14
24 0 5 14 -6 30 -25 l31 -35 -15 31 c-8 18 -26 45 -39 60 -12 16 -47 61 -77
99 l-53 70 67 -65 c60 -58 84 -60 32 -2 -11 13 -25 36 -31 52 -5 16 -40 61
-78 100 -67 70 -81 97 -19 39 17 -16 32 -26 32 -21 0 10 -38 45 -95 88 -70 52
-97 66 -117 61 -11 -3 -17 -3 -14 0 6 7 -68 43 -88 43 -6 0 -22 6 -36 13 -27
14 -170 28 -204 20z m515 -260 c13 -16 12 -17 -3 -4 -10 7 -18 15 -18 17 0 8
8 3 21 -13z m83 -72 c-2 -3 -19 10 -37 28 l-32 34 37 -29 c20 -15 35 -30 32
-33z m-374 -84 c86 3 106 -9 235 -130 65 -62 76 -76 58 -77 -18 0 -43 -25 -43
-43 0 -2 18 1 41 7 38 10 43 9 60 -13 10 -13 16 -28 12 -34 -5 -8 -8 -8 -11 1
-2 8 -11 6 -30 -6 -21 -13 -24 -14 -17 -2 8 13 6 13 -14 0 -22 -15 -70 -113
-53 -107 4 1 17 -8 28 -19 15 -15 30 -20 48 -17 28 6 51 36 43 56 -2 7 2 18 9
25 12 11 14 9 14 -8 0 -12 -5 -31 -11 -43 -9 -18 -9 -20 2 -9 7 6 17 12 21 12
15 0 9 -213 -7 -268 -22 -73 -147 -260 -180 -268 -43 -11 -114 4 -188 38 l-69
32 -59 117 c-37 75 -67 152 -82 212 l-23 93 23 -4 c13 -2 21 -8 18 -12 -9 -15
83 -33 132 -25 26 5 40 10 30 13 -14 3 -16 7 -6 18 6 7 8 22 4 31 -8 22 -6 29
6 25 5 -1 9 5 9 13 0 18 21 20 38 3 7 -7 12 -8 12 -2 0 26 -44 49 -103 54 -52
5 -68 3 -104 -16 -44 -24 -59 -19 -48 15 10 32 89 64 171 69 41 3 74 9 74 14
0 5 5 6 10 3 6 -3 10 -1 10 6 0 8 -22 10 -80 7 -68 -4 -87 -9 -131 -37 -44
-27 -54 -30 -66 -19 -21 22 -2 145 32 202 30 51 50 66 89 66 30 0 32 5 11 26
-8 9 -15 20 -15 27 0 6 6 2 14 -9 12 -16 25 -19 86 -17z m588 -409 c7 -7 12
-24 12 -39 0 -15 4 -29 8 -31 13 -4 24 -58 13 -58 -18 0 -71 84 -71 112 0 30
17 37 38 16z m-643 -48 c-3 -5 -13 -10 -21 -10 -8 0 -12 5 -9 10 3 6 13 10 21
10 8 0 12 -4 9 -10z m-478 -132 c-3 -7 -5 -2 -5 12 0 14 2 19 5 13 2 -7 2 -19
0 -25z m1146 -28 c3 -11 2 -18 -3 -15 -4 3 -10 14 -13 25 -3 11 -2 18 3 15 4
-3 10 -14 13 -25z m-34 -77 c17 -21 33 -53 37 -73 3 -19 10 -46 16 -60 5 -14
12 -45 14 -70 2 -25 6 -57 9 -72 5 -19 0 -33 -15 -48 -11 -11 -18 -24 -16 -29
3 -4 -1 -17 -9 -27 -13 -19 -14 -19 -28 1 -14 19 -15 18 -10 -8 4 -20 1 -27
-10 -27 -8 0 -18 6 -21 13 -3 9 -8 8 -18 -4 -7 -9 -23 -21 -35 -28 -21 -11
-23 -10 -23 14 0 31 -12 32 -34 3 -15 -22 -16 -20 -10 42 4 36 13 84 21 108 8
23 11 47 8 52 -3 5 -1 17 4 27 5 10 18 58 30 106 19 85 34 117 51 117 5 0 22
-17 39 -37z m69 -8 c-3 -3 -9 2 -12 12 -6 14 -5 15 5 6 7 -7 10 -15 7 -18z
m-1364 -189 c-3 -15 -8 -25 -11 -23 -2 3 -1 17 3 31 3 15 8 25 11 23 2 -3 1
-17 -3 -31z m1101 -82 c-6 -32 -18 -44 -28 -26 -3 4 3 30 11 57 13 40 17 45
20 26 2 -13 1 -39 -3 -57z m-333 -18 c23 -27 22 -36 -2 -36 -30 0 -24 -19 11
-34 18 -7 26 -15 19 -18 -9 -3 -5 -18 14 -56 27 -54 33 -77 16 -67 -5 3 -10 3
-10 -2 0 -13 16 -35 26 -35 19 -1 52 -138 56 -230 2 -45 7 -69 16 -73 7 -3 11
-13 8 -22 -3 -10 8 -54 24 -98 33 -90 41 -90 10 0 -11 32 -18 60 -17 62 7 6
66 -131 70 -161 2 -20 -3 -38 -17 -53 l-20 -24 -34 88 c-33 86 -43 127 -44
170 0 13 -4 20 -9 17 -5 -3 -9 -3 -9 0 0 2 -3 13 -6 23 -4 13 -3 14 4 5 7 -10
9 -5 8 16 -1 17 -3 29 -6 27 -3 -2 -6 8 -6 21 -1 13 2 21 7 18 5 -3 9 5 9 18
0 13 -9 29 -21 36 -18 12 -19 11 -10 -7 26 -47 8 -31 -24 23 -20 32 -33 61
-30 64 3 3 5 1 5 -4 0 -5 10 -20 21 -34 20 -24 20 -24 14 -2 -9 30 1 28 19 -5
l15 -28 1 27 c0 18 -9 33 -30 48 -16 12 -33 33 -36 46 -4 15 -12 23 -19 20 -9
-3 -19 27 -35 102 -13 59 -31 126 -41 150 -11 24 -19 48 -19 54 0 13 49 -18
72 -46z m652 -55 c2 -28 0 -53 -4 -56 -10 -6 -3 -71 11 -108 7 -15 12 -47 13
-71 0 -24 4 -42 8 -40 9 6 22 -76 13 -84 -3 -4 -11 1 -16 11 -6 9 -15 17 -20
17 -6 0 -7 -6 -3 -12 5 -10 4 -10 -5 -2 -25 23 -35 168 -21 290 7 63 15 112
17 110 2 -2 5 -26 7 -55z m-335 -45 c1 -31 -2 -37 -15 -32 -14 5 -15 4 -4 -9
10 -12 10 -21 2 -40 -32 -69 -43 13 -16 106 14 44 18 50 25 34 4 -11 8 -37 8
-59z m287 -75 c1 -76 4 -151 8 -165 12 -49 -11 -26 -26 27 l-16 52 -1 -40 c-1
-33 6 -49 40 -90 23 -28 45 -52 50 -53 5 -2 21 -27 36 -55 23 -46 24 -55 13
-85 -15 -43 -51 -104 -57 -98 -2 2 5 35 16 73 12 38 16 69 11 71 -5 2 -12 19
-16 38 -5 28 -9 32 -20 23 -11 -9 -16 -6 -23 12 -10 27 -13 22 -30 -47 -12
-45 -60 -97 -62 -66 -1 9 -1 20 0 25 3 17 -17 5 -22 -14 -3 -12 -10 -18 -16
-15 -6 4 -18 -15 -28 -44 l-18 -50 -17 33 c-9 17 -17 26 -18 20 0 -20 -14 -15
-25 10 -6 12 -18 21 -29 20 -17 -1 -18 5 -11 85 4 48 10 130 14 182 3 54 10
95 16 94 21 -2 46 -65 56 -144 5 -46 14 -90 18 -97 10 -19 38 51 53 133 10 57
9 64 -11 98 -17 26 -19 36 -9 36 8 0 19 -5 25 -11 9 -9 10 -7 6 10 -6 25 12
28 27 4 9 -15 10 -14 4 7 -3 14 -7 27 -8 30 0 3 11 21 27 41 15 20 27 45 27
56 0 15 8 33 14 33 1 0 2 -63 2 -139z m-377 -15 l54 -55 -22 -53 c-20 -49 -22
-42 -6 22 5 21 -2 34 -44 77 -28 29 -51 55 -51 58 0 15 21 0 69 -49z m280 45
c9 -6 10 -10 2 -16 -16 -9 -44 2 -36 15 8 12 16 12 34 1z m-66 -60 l55 -60
-11 -48 -11 -47 -10 32 c-5 18 -14 31 -20 29 -6 -2 -19 14 -30 36 -10 21 -29
43 -41 49 -16 7 -20 16 -17 39 2 16 10 29 17 29 7 0 38 -27 68 -59z m16 20
c-15 -5 -22 6 -14 19 6 9 10 9 16 -1 5 -8 4 -15 -2 -18z m-1020 -382 c-14 -42
-29 -60 -29 -35 0 18 31 78 37 72 2 -1 -2 -18 -8 -37z m-112 -86 c-2 -16 -4
-5 -4 22 0 28 2 40 4 28 2 -13 2 -35 0 -50z m-273 -57 c-3 -15 -8 -25 -11 -23
-2 3 -1 17 3 31 3 15 8 25 11 23 2 -3 1 -17 -3 -31z m411 -95 c16 -7 14 -9
-15 -14 -36 -8 -46 -4 -35 12 7 12 21 13 50 2z"/>
<path d="M1470 1229 c0 -5 5 -7 10 -4 6 3 10 8 10 11 0 2 -4 4 -10 4 -5 0 -10
-5 -10 -11z"/>
<path d="M1722 928 c-16 -16 -15 -28 3 -28 8 0 15 9 15 20 0 23 -2 24 -18 8z"/>
<path d="M1371 684 c0 -11 3 -14 6 -6 3 7 2 16 -1 19 -3 4 -6 -2 -5 -13z"/>
<path d="M1820 756 c0 -2 8 -10 18 -17 15 -13 16 -12 3 4 -13 16 -21 21 -21
13z"/>
</g>
</svg>
